<?xml version="1.0" encoding="UTF-8" standalone="no"?>
<!DOCTYPE svg PUBLIC "-//W3C//DTD SVG 1.1//EN" "http://www.w3.org/Graphics/SVG/1.1/DTD/svg11.dtd">
<svg width="100%" height="100%" viewBox="0 0 24 24" version="1.1" xmlns="http://www.w3.org/2000/svg" xmlns:xlink="http://www.w3.org/1999/xlink" xml:space="preserve" xmlns:serif="http://www.serif.com/" style="fill-rule:evenodd;clip-rule:evenodd;stroke-linejoin:round;stroke-miterlimit:2;">
    <path d="M19.705,2.147L19.705,21.853L0,21.853L0,2.147L19.705,2.147ZM0.141,21.712L19.564,21.712L19.564,2.288L0.141,2.288L0.141,21.712ZM2.702,11.268C3.13,11.268 3.462,11.381 3.698,11.606C3.934,11.831 4.065,12.088 4.091,12.374L3.645,12.374C3.604,12.173 3.497,11.991 3.342,11.857C3.192,11.729 2.98,11.666 2.707,11.666C2.374,11.666 2.105,11.783 1.899,12.018C1.695,12.251 1.593,12.608 1.593,13.092C1.593,13.488 1.685,13.809 1.869,14.056C2.055,14.301 2.331,14.424 2.697,14.424C3.035,14.424 3.292,14.294 3.468,14.035C3.562,13.899 3.631,13.719 3.678,13.497L4.124,13.497C4.084,13.853 3.952,14.151 3.728,14.392C3.46,14.682 3.098,14.826 2.642,14.826C2.25,14.826 1.92,14.708 1.653,14.47C1.303,14.155 1.126,13.67 1.126,13.014C1.126,12.515 1.258,12.107 1.522,11.788C1.807,11.441 2.201,11.268 2.702,11.268ZM4.982,13.648C4.992,13.84 5.038,13.996 5.117,14.115C5.269,14.339 5.537,14.451 5.92,14.451C6.092,14.451 6.248,14.427 6.39,14.378C6.662,14.283 6.799,14.112 6.799,13.867C6.799,13.683 6.741,13.552 6.626,13.474C6.51,13.397 6.327,13.33 6.079,13.274L5.621,13.17C5.322,13.103 5.111,13.028 4.986,12.947C4.772,12.806 4.664,12.595 4.664,12.314C4.664,12.011 4.769,11.761 4.979,11.567C5.189,11.372 5.487,11.275 5.872,11.275C6.226,11.275 6.527,11.36 6.774,11.532C7.022,11.702 7.146,11.975 7.146,12.352L6.716,12.352C6.705,12.202 6.654,12.059 6.569,11.935C6.429,11.758 6.192,11.67 5.859,11.67C5.589,11.67 5.394,11.727 5.276,11.84C5.164,11.941 5.099,12.085 5.099,12.236C5.099,12.402 5.169,12.523 5.306,12.6C5.396,12.649 5.601,12.71 5.92,12.784L6.394,12.892C6.623,12.944 6.799,13.015 6.924,13.106C7.138,13.264 7.245,13.493 7.245,13.793C7.245,14.168 7.109,14.435 6.835,14.596C6.547,14.761 6.22,14.845 5.888,14.838C5.468,14.838 5.138,14.73 4.901,14.516C4.664,14.303 4.547,14.014 4.551,13.649L4.981,13.649L4.982,13.648ZM8.119,13.648C8.13,13.84 8.175,13.996 8.255,14.115C8.407,14.339 8.675,14.451 9.058,14.451C9.229,14.451 9.386,14.427 9.527,14.378C9.8,14.283 9.937,14.112 9.937,13.867C9.937,13.683 9.879,13.552 9.764,13.474C9.647,13.397 9.464,13.33 9.216,13.274L8.759,13.17C8.459,13.103 8.248,13.028 8.124,12.947C7.909,12.806 7.802,12.595 7.802,12.314C7.802,12.011 7.907,11.761 8.117,11.567C8.327,11.372 8.625,11.275 9.009,11.275C9.364,11.275 9.664,11.36 9.911,11.532C10.16,11.702 10.284,11.975 10.284,12.352L9.854,12.352C9.842,12.202 9.791,12.058 9.706,11.935C9.566,11.758 9.33,11.67 8.996,11.67C8.726,11.67 8.532,11.727 8.414,11.84C8.302,11.941 8.237,12.085 8.237,12.236C8.237,12.402 8.306,12.523 8.444,12.6C8.534,12.649 8.739,12.71 9.058,12.784L9.532,12.892C9.76,12.944 9.936,13.015 10.061,13.106C10.275,13.264 10.383,13.493 10.383,13.793C10.383,14.168 10.246,14.435 9.973,14.596C9.685,14.761 9.358,14.845 9.026,14.838C8.606,14.838 8.276,14.73 8.039,14.516C7.801,14.303 7.684,14.014 7.689,13.649L8.119,13.649L8.119,13.648ZM1.922,17.248L2.892,20.105L3.857,17.248L4.505,17.248L4.505,20.628L4.071,20.628L4.071,18.633C4.071,18.563 4.072,18.45 4.075,18.29C4.078,18.13 4.08,17.96 4.08,17.777L3.116,20.627L2.663,20.627L1.693,17.777L1.693,17.881C1.693,17.964 1.693,18.091 1.697,18.261C1.701,18.429 1.704,18.553 1.704,18.633L1.704,20.627L1.267,20.627L1.267,17.248L1.922,17.248ZM6.665,17.157C7.262,17.157 7.703,17.348 7.99,17.732C8.214,18.031 8.326,18.413 8.326,18.879C8.326,19.384 8.198,19.803 7.942,20.138C7.642,20.53 7.212,20.727 6.656,20.727C6.136,20.727 5.727,20.555 5.43,20.211C5.165,19.881 5.032,19.461 5.032,18.955C5.032,18.498 5.145,18.107 5.372,17.782C5.664,17.365 6.095,17.157 6.665,17.157ZM6.711,20.317C7.114,20.317 7.406,20.173 7.585,19.885C7.766,19.595 7.857,19.262 7.857,18.886C7.857,18.489 7.752,18.169 7.544,17.927C7.337,17.685 7.054,17.564 6.693,17.564C6.343,17.564 6.058,17.684 5.837,17.924C5.617,18.164 5.506,18.518 5.506,18.985C5.506,19.36 5.6,19.675 5.789,19.933C5.979,20.189 6.286,20.317 6.711,20.317ZM10.166,20.237C10.321,20.237 10.449,20.22 10.548,20.188C10.729,20.126 10.883,20.004 10.985,19.843C11.075,19.707 11.141,19.532 11.181,19.319C11.203,19.202 11.214,19.083 11.215,18.964C11.215,18.546 11.132,18.221 10.965,17.989C10.799,17.758 10.531,17.642 10.162,17.642L9.35,17.642L9.35,20.237L10.166,20.237ZM8.89,17.247L10.258,17.247C10.723,17.247 11.083,17.412 11.339,17.742C11.568,18.039 11.682,18.421 11.682,18.885C11.682,19.245 11.615,19.568 11.48,19.858C11.242,20.37 10.833,20.627 10.254,20.627L8.89,20.627L8.89,17.247ZM12.77,17.247L12.77,19.336C12.77,19.581 12.816,19.786 12.908,19.948C13.044,20.193 13.275,20.316 13.598,20.316C13.986,20.316 14.25,20.183 14.389,19.918C14.465,19.774 14.502,19.58 14.502,19.336L14.502,17.247L14.967,17.247L14.967,19.145C14.967,19.56 14.911,19.88 14.799,20.105C14.593,20.512 14.205,20.715 13.635,20.715C13.065,20.715 12.677,20.512 12.473,20.105C12.361,19.88 12.305,19.56 12.305,19.145L12.305,17.247L12.77,17.247ZM16.127,17.247L16.127,20.224L17.838,20.224L17.838,20.626L15.668,20.626L15.668,17.247L16.127,17.247ZM18.335,17.247L20.798,17.247L20.798,17.661L18.781,17.661L18.781,18.687L20.646,18.687L20.646,19.078L18.781,19.078L18.781,20.224L20.833,20.224L20.833,20.626L18.335,20.626L18.335,17.247ZM21.737,19.537C21.747,19.727 21.793,19.884 21.872,20.003C22.024,20.227 22.292,20.339 22.675,20.339C22.847,20.339 23.003,20.314 23.145,20.265C23.417,20.17 23.554,20 23.554,19.755C23.554,19.571 23.496,19.44 23.381,19.361C23.265,19.285 23.082,19.218 22.834,19.161L22.376,19.058C22.077,18.99 21.866,18.916 21.741,18.835C21.526,18.694 21.419,18.483 21.419,18.202C21.419,17.898 21.524,17.649 21.734,17.454C21.944,17.26 22.242,17.162 22.627,17.162C22.981,17.162 23.282,17.248 23.528,17.42C23.777,17.59 23.901,17.863 23.901,18.239L23.471,18.239C23.46,18.09 23.409,17.946 23.324,17.823C23.184,17.646 22.947,17.558 22.613,17.558C22.343,17.558 22.149,17.615 22.031,17.728C21.919,17.829 21.854,17.973 21.854,18.124C21.854,18.289 21.923,18.411 22.061,18.487C22.151,18.537 22.356,18.597 22.675,18.671L23.149,18.779C23.377,18.832 23.554,18.903 23.678,18.993C23.893,19.151 24,19.381 24,19.681C24,20.055 23.864,20.323 23.59,20.484C23.302,20.649 22.975,20.732 22.643,20.725C22.223,20.725 21.893,20.618 21.656,20.403C21.418,20.19 21.302,19.901 21.306,19.536L21.736,19.536L21.737,19.537Z" style="fill:rgb(102,51,153);fill-rule:nonzero;"/>
</svg>
